HIERARCHY
ROOT Hips
{
 OFFSET 0.000000 0.000000 0.000000
 CHANNELS 6 Xposition Yposition Zposition Yrotation Xrotation Zrotation
 JOINT Chest
 {
  OFFSET 0.000000 9.585900 0.002600
  CHANNELS 3 Yrotation Xrotation Zrotation
  JOINT Chest2
  {
   OFFSET 0.000000 9.601200 -0.005300
   CHANNELS 3 Yrotation Xrotation Zrotation
   JOINT Chest3
   {
    OFFSET 0.000000 9.561800 0.000000
    CHANNELS 3 Yrotation Xrotation Zrotation
    JOINT Chest4
    {
     OFFSET 0.000000 9.552100 0.000000
     CHANNELS 3 Yrotation Xrotation Zrotation
     JOINT Neck
     {
      OFFSET 0.000000 14.453000 0.000000
      CHANNELS 3 Yrotation Xrotation Zrotation
      JOINT Head
      {
       OFFSET 0.000000 8.936500 -0.011300
       CHANNELS 3 Yrotation Xrotation Zrotation
       End Site
       {
        OFFSET 0.000000 17.073600 -0.006000
       }
      }
     }
     JOINT RightCollar
     {
      OFFSET -2.921100 9.558500 0.000000
      CHANNELS 3 Yrotation Xrotation Zrotation
      JOINT RightShoulder
      {
       OFFSET -13.519700 0.000000 0.000000
       CHANNELS 3 Yrotation Xrotation Zrotation
       JOINT RightElbow
       {
        OFFSET 0.000000 -29.696600 0.000000
        CHANNELS 3 Yrotation Xrotation Zrotation
        JOINT RightWrist
        {
         OFFSET 0.000000 -24.004700 0.000000
         CHANNELS 3 Yrotation Xrotation Zrotation
         End Site
         {
          OFFSET 0.000000 -17.728500 0.000000
         }
        }
       }
      }
     }
     JOINT LeftCollar
     {
      OFFSET 2.921100 9.558500 0.000000
      CHANNELS 3 Yrotation Xrotation Zrotation
      JOINT LeftShoulder
      {
       OFFSET 13.519700 0.000000 0.000000
       CHANNELS 3 Yrotation Xrotation Zrotation
       JOINT LeftElbow
       {
        OFFSET 0.000000 -29.696600 0.000000
        CHANNELS 3 Yrotation Xrotation Zrotation
        JOINT LeftWrist
        {
         OFFSET 0.000000 -24.004700 0.000000
         CHANNELS 3 Yrotation Xrotation Zrotation
         End Site
         {
          OFFSET 0.000000 -17.728500 0.000000
         }
        }
       }
      }
     }
    }
   }
  }
 }
 JOINT RightHip
 {
  OFFSET -7.771700 -0.012900 -0.001300
  CHANNELS 3 Yrotation Xrotation Zrotation
  JOINT RightKnee
  {
   OFFSET 0.000000 -40.869800 0.001200
   CHANNELS 3 Yrotation Xrotation Zrotation
   JOINT RightAnkle
   {
    OFFSET 0.000000 -39.717900 0.002100
    CHANNELS 3 Yrotation Xrotation Zrotation
    JOINT RightToe
    {
     OFFSET 0.000000 -4.965400 11.033500
     CHANNELS 3 Yrotation Xrotation Zrotation
     End Site
     {
      OFFSET 0.000000 -1.423100 5.872300
     }
    }
   }
  }
 }
 JOINT LeftHip
 {
  OFFSET 7.771700 -0.012900 -0.001300
  CHANNELS 3 Yrotation Xrotation Zrotation
  JOINT LeftKnee
  {
   OFFSET 0.000000 -40.869800 0.001200
   CHANNELS 3 Yrotation Xrotation Zrotation
   JOINT LeftAnkle
   {
    OFFSET 0.000000 -39.717900 0.002100
    CHANNELS 3 Yrotation Xrotation Zrotation
    JOINT LeftToe
    {
     OFFSET 0.000000 -4.965400 11.033500
     CHANNELS 3 Yrotation Xrotation Zrotation
     End Site
     {
      OFFSET 0.000000 -1.423100 5.872300
     }
    }
   }
  }
 }
}
MOTION
Frames: 5
Frame Time: 0.008333
0.000000 85.388000 0.000000 0.000000 -5.767877 0.000000 0.000000 11.653817 0.000000 0.000000 -5.885947 0.000000 0.000000 -0.000000 0.000000 0.000000 -0.000000 0.000000 0.000000 12.528835 0.000000 0.000000 0.711642 0.000000 0.000000 -0.000000 0.000000 0.000000 0.000000 -90.000000 0.000000 -2.309062 0.000000 0.000000 2.309062 0.000000 0.000000 -0.000000 0.000000 0.000000 -0.000000 90.000000 0.000000 -2.309062 0.000000 0.000000 2.309062 0.000000 0.000000 8.520406 0.000000 0.000000 1.905762 0.000000 -0.000000 -4.658285 0.000000 0.000000 -0.000000 0.000000 0.000000 8.520406 0.000000 0.000000 1.905762 0.000000 -0.000000 -4.658285 0.000000 0.000000 -0.000000 0.000000
-1.090245 52.228361 35.361478 170.865309 -37.677451 -2.141370 3.029494 22.890923 1.963703 0.378018 3.288595 0.391428 0.623077 5.315001 0.644442 2.607435 19.114221 2.676994 2.081000 15.254916 -1.117883 4.175241 -7.306256 -2.886873 -5.742443 -0.843898 -4.148890 -1.561796 -4.799938 5.091036 166.798551 -81.138172 -154.404763 3.999529 -5.768701 -11.224609 -5.378036 -1.670733 -0.728781 2.564065 -16.004701 6.039810 161.670876 -50.852596 174.672913 -9.961692 -21.355513 33.451573 -4.135798 -43.421131 2.663447 -166.429867 86.315815 -162.195901 -0.839708 -11.723883 -2.790621 0.054983 -0.209722 0.008895 -0.886172 -40.015283 6.032327 74.114519 82.644469 64.147674 -5.306710 -12.736578 8.946615 0.391300 1.679841 0.180451
-1.090822 52.226398 35.361002 170.848553 -37.647737 -2.129515 3.039723 22.924760 1.961089 0.379770 3.300111 0.391860 0.625886 5.332626 0.645040 2.613504 19.140913 2.675852 2.027170 15.167001 -1.149985 4.108114 -7.478926 -2.928332 -5.712323 -0.851361 -4.154777 -1.570549 -4.813366 5.102259 166.809429 -81.102392 -154.414608 4.034980 -5.816032 -11.259378 -5.405138 -1.670411 -0.724633 2.569678 -16.209799 6.106335 160.112179 -50.787071 175.743306 -9.776693 -21.353067 33.685832 -4.147299 -43.454402 2.677242 -166.448709 86.314544 -162.226077 -0.837711 -11.724568 -2.793878 0.053545 -0.214654 0.013746 -0.848066 -40.045787 6.021444 74.187104 82.632014 64.221402 -5.300561 -12.747436 8.951259 0.370346 1.680220 0.182401
-1.090797 52.226157 35.357568 170.843354 -37.632955 -2.125209 3.043906 22.971501 1.959274 0.381738 3.311000 0.392160 0.629052 5.349268 0.645501 2.620979 19.165991 2.674550 1.977765 15.079970 -1.174401 4.050151 -7.638912 -2.965543 -5.701396 -0.909499 -4.150333 -1.549194 -4.767401 5.102635 166.896106 -81.033900 -154.523765 4.061520 -5.783003 -11.294179 -5.430173 -1.665812 -0.718002 2.570758 -16.389568 6.157766 158.742391 -50.676786 176.667854 -9.625794 -21.332489 34.004614 -4.180568 -43.466154 2.692096 -166.533642 86.310681 -162.324182 -0.832864 -11.731452 -2.806686 0.055271 -0.214561 0.014296 -0.819961 -40.058562 6.015233 74.237767 82.624675 64.274341 -5.309303 -12.757579 8.955110 0.362164 1.681514 0.188221
-1.089419 52.225568 35.354044 170.842296 -37.613449 -2.130793 3.051494 23.012793 1.965500 0.384044 3.321088 0.392571 0.627254 5.321554 0.645910 2.636606 19.231884 2.676675 1.906659 15.028736 -1.215681 4.018420 -7.816794 -2.982800 -5.671183 -0.882646 -4.156085 -1.548056 -4.796579 5.113446 167.004054 -80.964121 -154.664947 4.060299 -5.736253 -11.326077 -5.462252 -1.658061 -0.706065 2.553774 -16.575164 6.225842 157.571230 -50.540015 177.487723 -9.511779 -21.293874 34.360929 -4.205222 -43.482752 2.710900 -166.584957 86.308529 -162.379743 -0.830996 -11.735419 -2.809823 0.055257 -0.216888 0.010616 -0.772232 -40.078468 6.013018 74.259124 82.626898 64.316092 -5.347390 -12.765043 8.964718 0.378847 1.683362 0.197715
